<svg width="322" height="72.802" viewBox="0 0 322 72.802" xmlns="http://www.w3.org/2000/svg"><g id="svgGroup" stroke-linecap="round" fill-rule="evenodd" font-size="9pt" stroke="#fff" stroke-width="0.25mm" fill="white" style="stroke:#fff;stroke-width:0.25mm;fill:white"><path d="M 244.6 51.501 L 250.6 66.101 Q 245.543 69.005 238.468 70.768 A 68.272 68.272 0 0 1 237.5 71.001 Q 229.8 72.801 221.5 72.801 A 77.567 77.567 0 0 1 213.107 72.373 Q 209.027 71.928 205.52 71.021 A 40.962 40.962 0 0 1 202.45 70.101 Q 194.6 67.401 190.65 62.601 Q 186.7 57.801 186.7 51.501 A 17.062 17.062 0 0 1 187.786 45.355 A 15.814 15.814 0 0 1 189.7 41.801 A 18.644 18.644 0 0 1 195.791 36.398 A 23.336 23.336 0 0 1 198 35.301 A 15.359 15.359 0 0 1 193.547 31.933 A 14.315 14.315 0 0 1 191.75 29.451 Q 189.6 25.701 189.6 21.201 Q 189.6 15.401 193.25 10.601 A 19.943 19.943 0 0 1 197.776 6.337 Q 199.887 4.865 202.558 3.668 A 38.203 38.203 0 0 1 204.4 2.901 A 39.515 39.515 0 0 1 211.632 0.919 Q 216.713 0.001 222.9 0.001 Q 229.8 0.001 236.5 1.301 Q 243.2 2.601 248.3 4.801 L 242.9 19.601 Q 233.6 15.501 223.7 15.501 A 43.711 43.711 0 0 0 219.991 15.648 Q 216.306 15.963 213.94 16.956 A 10.455 10.455 0 0 0 213.1 17.351 A 8.33 8.33 0 0 0 211.369 18.542 A 5.151 5.151 0 0 0 209.6 22.501 Q 209.6 28.501 218.3 28.501 L 238.1 28.501 L 238.1 43.601 L 217 43.601 A 25.219 25.219 0 0 0 214.192 43.747 Q 211.317 44.07 209.53 45.112 A 7.126 7.126 0 0 0 209.3 45.251 A 5.56 5.56 0 0 0 207.478 47.064 Q 206.825 48.144 206.72 49.552 A 7.403 7.403 0 0 0 206.7 50.101 A 5.216 5.216 0 0 0 208.749 54.286 A 9.247 9.247 0 0 0 210.5 55.401 Q 214.3 57.301 222.3 57.301 A 45.843 45.843 0 0 0 231.42 56.355 A 53.131 53.131 0 0 0 234.05 55.751 A 44.91 44.91 0 0 0 239.877 53.847 A 34.506 34.506 0 0 0 244.6 51.501 Z M 177 30.601 L 177 71.401 L 157.2 71.401 L 157.2 31.201 Q 157.2 23.801 153.85 20.101 A 10.965 10.965 0 0 0 147.667 16.694 A 16.285 16.285 0 0 0 144.5 16.401 A 15.803 15.803 0 0 0 139.94 17.028 A 12.358 12.358 0 0 0 134.5 20.351 Q 131.446 23.526 130.846 29.252 A 28.352 28.352 0 0 0 130.7 32.201 L 130.7 71.401 L 110.9 71.401 L 110.9 1.401 L 130.1 1.401 L 130.1 9.401 A 23.058 23.058 0 0 1 146.055 0.305 A 34.274 34.274 0 0 1 150.7 0.001 A 31.51 31.51 0 0 1 158.797 0.984 A 22.108 22.108 0 0 1 170.1 7.951 Q 177 15.901 177 30.601 Z M 322 33.601 L 322 71.401 L 302.2 71.401 L 302.2 55.901 L 274.9 55.901 L 274.9 71.401 L 255.4 71.401 L 255.4 33.601 A 45.251 45.251 0 0 1 256.18 24.983 A 32.493 32.493 0 0 1 259.55 15.451 Q 263.7 7.901 271.25 3.951 A 34.41 34.41 0 0 1 282.456 0.427 A 44.398 44.398 0 0 1 288.7 0.001 Q 298.6 0.001 306.15 3.951 Q 313.7 7.901 317.85 15.451 A 32.459 32.459 0 0 1 321.206 24.91 Q 321.994 28.932 322 33.529 A 54.162 54.162 0 0 1 322 33.601 Z M 100.2 16.701 L 88.9 16.701 L 88.9 56.101 L 100.2 56.101 L 100.2 71.401 L 57.7 71.401 L 57.7 56.101 L 69.1 56.101 L 69.1 16.701 L 57.7 16.701 L 57.7 1.401 L 100.2 1.401 L 100.2 16.701 Z M 0 71.401 L 0 1.401 L 19.8 1.401 L 19.8 55.701 L 53.2 55.701 L 53.2 71.401 L 0 71.401 Z M 274.9 40.601 L 302.2 40.601 L 302.2 31.901 Q 302.2 24.201 298.5 20.301 A 12.288 12.288 0 0 0 291.193 16.588 A 17.369 17.369 0 0 0 288.6 16.401 A 16.422 16.422 0 0 0 284.241 16.95 A 12 12 0 0 0 278.6 20.301 A 12.307 12.307 0 0 0 275.887 24.96 Q 274.9 27.923 274.9 31.901 L 274.9 40.601 Z" vector-effect="non-scaling-stroke"/></g></svg>
